<?xml version="1.0" encoding="utf-8"?>
<!-- Generator: Adobe Illustrator 28.1.0, SVG Export Plug-In . SVG Version: 6.00 Build 0)  -->
<svg version="1.1" id="Layer_1" xmlns="http://www.w3.org/2000/svg" xmlns:xlink="http://www.w3.org/1999/xlink" x="0px" y="0px"
	 viewBox="0 0 508 119.8" style="enable-background:new 0 0 508 119.8;" xml:space="preserve">
<style type="text/css">
	.st0{fill-rule:evenodd;clip-rule:evenodd;fill:#ffffff;}
</style>
<path id="Logo_reduzida" class="st0" d="M54.8,94.5V55.6c0-20.2-8.3-30.6-24.2-30.6c-7.1,0-13.5,3.2-17.1,7.9v-6.3H0v67.9h13.5V54.8
	c0-11.1,5.2-17.5,13.9-17.5S41.7,42.5,41.7,56v38.5L54.8,94.5L54.8,94.5z M329.4,61.5c0-25.8-11.5-36.5-26.2-36.5
	c-7.1,0-12.7,3.6-17.8,7.9v-6.3h-13.1v93.2l13.1-7.1V88.1c4,4.4,10.3,7.9,17.1,7.9C316.7,96,329.4,84.9,329.4,61.5 M315.9,61.9
	c0,14.7-5.2,21.8-14.7,21.8c-6.8,0-13.1-4.8-15.9-8.7V46c3.6-4.4,9.1-8.7,15.5-8.7C310.8,37.3,315.9,44.9,315.9,61.9 M401.6,59.2
	c0-18.3-9.5-34.1-28.6-34.1c-17.8,0-30.2,12.3-30.2,35.7s13.5,35.3,29.8,35.3c10.3,0,17.5-3.2,23.4-8.7l-7.9-8.7
	c-4.4,3.2-9.1,5.5-14.7,5.5c-8.3,0-15.9-5.5-17.5-19.1h45.2C401.2,63.9,401.7,61.5,401.6,59.2 M388.2,54.4h-31.8
	c1.2-11.1,6.8-17.5,15.5-17.5C383,36.9,387.4,44.9,388.2,54.4 M419.1,94.5V6.8L432.2,0v94.5L419.1,94.5L419.1,94.5z M508,59.2
	c0-18.3-9.1-34.1-28.6-34.1c-17.9,0-30.2,12.3-30.2,35.7s13.5,35.3,29.8,35.3c10.3,0,17.5-3.2,23.4-8.7l-7.9-8.7
	c-4.4,3.2-9.1,5.5-14.7,5.5c-8.3,0-15.9-5.5-17.1-19.1h44.8C508,63.9,508,61.5,508,59.2 M494.5,54.4h-31.7
	c1.2-11.1,6.8-17.5,15.9-17.5C489.3,36.9,494.1,44.9,494.5,54.4 M126.6,94.5V48c0-15.5-10.3-23-25.8-23c-9.5,0-16.7,2-23.4,6
	l5.2,10.3c5.5-3.2,10.7-4.4,17.8-4.4c8.3,0,13.1,4.4,13.1,11.5v5.2c-4-1.6-9.1-2.8-15.5-2.8c-15.5,0-27,7.1-27,22.2
	c0,16.7,12.7,23,23.4,23c7.5,0,14.3-3.6,19.1-7.9v6.3L126.6,94.5L126.6,94.5z M113.5,75.4c-3.2,4.4-9.5,8.7-16.7,8.7
	c-8.7,0-13.1-4.8-13.1-11.5c0-6.3,5.5-9.9,13.9-9.9c7.5,0,11.9,1.2,15.9,2.8C113.5,65.5,113.5,75.4,113.5,75.4z M179.8,81
	c-2.4,1.6-6.3,2.8-9.9,2.8c-4.8,0-6.8-1.6-6.8-7.9V38.9h16.7V26.6h-16.7V0l-13.5,6.8v19.8h-9.5v12.3h9.5v39.3
	c0,12.3,6,17.8,15.5,17.8c5.5,0,9.9-1.2,13.1-3.2L179.8,81L179.8,81z M252.4,94.5V26.6h-13.5v39.7c0,11.1-4.8,17.5-13.9,17.5
	s-14.3-4.8-14.3-18.6V26.6h-13.1v38.9c0,20.2,8.3,30.6,24.2,30.6c7.1,0,13.9-2.8,17.1-7.9v6.3L252.4,94.5L252.4,94.5z"/>
</svg>
