<?xml version="1.0" encoding="utf-8"?>
<!-- Generator: Adobe Illustrator 28.1.0, SVG Export Plug-In . SVG Version: 6.00 Build 0)  -->
<svg version="1.1" id="Layer_1" xmlns="http://www.w3.org/2000/svg" xmlns:xlink="http://www.w3.org/1999/xlink" x="0px" y="0px"
	 viewBox="0 0 580 170.5" style="enable-background:new 0 0 580 170.5;" xml:space="preserve">
<style type="text/css">
	.st0{fill-rule:evenodd;clip-rule:evenodd;fill:#ffffff;}
	.st1{fill:#E94031;}
</style>
<g id="LOGO_COMPLETA">
	<g id="Dermocosméticos">
		<path class="st0" d="M342.6,157l0-3.3h-3.5c-0.3,1.1-0.1,14.2-0.1,16.4h3.8c0-2.8,0-5.6,0-8.3c0-2.6,1-4.7,3.2-5
			c3.3-0.6,3.3,2.2,3.3,4.9c0,2.8,0,5.7,0,8.5h3.9c0-2.8,0-5.6,0-8.3c0-2.6,0.8-4.8,3.2-5c3.3-0.3,3.3,2.2,3.3,4.9
			c0,2.8,0,5.7,0,8.5h3.9v-7.7c0-2.5,0.3-5.2-0.9-6.9c-1-1.4-3-2.5-5.5-2c-1.1,0.2-1.9,0.7-2.6,1.3c-0.5,0.4-0.9,1.1-1.3,1.6
			l-0.6,0.7c-0.9-2.2-1.8-3.8-5-3.6C344.3,153.5,343.6,155.8,342.6,157"/>
		<path class="st0" d="M437.5,157c-0.1-1.1,0.2-2.3-0.1-3.4h-3.4c-0.2,1-0.1,14.2-0.1,16.4h3.8c0-2.8,0-5.6,0-8.3c0-5.9,5-6,6.1-3.8
			c0.6,1.3,0.3,10.3,0.3,12.2h3.9c0-2.8,0-5.6,0-8.3c0-2.6,0.8-4.8,3.3-5c3.3-0.3,3.2,2.3,3.2,5s0.1,5.6,0,8.3h3.9
			c0-2.6,0-5.2,0-7.9c0-2.6,0.4-4.9-1-6.9c-0.9-1.4-3.1-2.4-5.6-1.8c-2.4,0.6-3,2-4.2,3.6c-0.9-2.3-2-3.9-5.1-3.7
			C440.2,153.4,438.1,155.1,437.5,157"/>
		<path class="st0" d="M420.3,165.6l-3.5,0.6c1.4,6.3,16,5.5,13.9-2.7c-0.9-3.6-4.7-3.1-8.2-4.2c-3.6-1.2-0.8-4.5,2.7-3.2
			c1.2,0.4,1,0.7,1.6,1.6l3.2-0.6c-0.8-4.5-9.5-5.3-11.9-1.2c-1.5,2.5-1,6.1,3.6,7.3c1.3,0.4,4,0.5,5,1.3c0.6,0.5,0.9,1.4,0.2,2.2
			c-0.5,0.6-1.3,0.8-2.3,0.9C422.6,167.7,420.8,167.3,420.3,165.6"/>
		<path class="st0" d="M533.8,165.7l-3.4,0.6c1.1,6.5,16.6,5.3,13.8-3.1c-0.4-1.2-1.4-2-2.5-2.5c-1.8-0.7-6.8-0.9-7.2-2.6
			c-0.7-2.7,5.2-3.1,5.8-0.3l3.3-0.6c-0.6-2.7-3.3-3.9-6.5-3.9c-7,0-8.4,7.9-2.5,9.8c1.8,0.6,7.4,0.5,5.9,3.4
			c-0.5,1-2.3,1.3-3.8,1.2C535,167.5,534.7,166.8,533.8,165.7"/>
		<path class="st0" d="M511.8,164.4l-3.1-0.3c-0.8,4.4-6.7,4.8-6.6-2.2c0.1-5.3,3.3-6.4,5.3-5.1c0.7,0.5,1.2,1.4,1.3,2.6l3.2-0.4
			c-1-8.3-13.7-7.7-13.7,2.9c0,4.2,2,7.8,5.6,8.4c2.2,0.4,4.3-0.2,5.6-1.3C510.4,168.2,511.9,166.3,511.8,164.4"/>
		<path class="st0" d="M398.2,164.3l-3-0.3c-0.5,0.7-1.2,4-4.3,3c-3.3-1.1-3-9.2,0-10.4c1-0.4,2.3-0.3,3,0.3c1,0.7,0.8,1.4,1.4,2.5
			l3.1-0.4c-0.8-8.3-13.7-7.8-13.7,2.9c0,8.4,7.1,10.3,11.3,7.1C396.7,168.3,398.3,166,398.2,164.3"/>
		<path class="st0" d="M481,153.6h-2.2l0,2.9h2c0,3-0.3,7.8,0.2,10.5c0.6,3.9,5.1,3.9,7,3.1l0-2.9c-3.3,0.2-3.6-0.4-3.6-3.6
			c0-1.4-0.2-6.1,0.1-7.1h3.2v-2.9h-3.2c-0.3-0.9-0.1-3.4-0.1-4.5c-0.6,0-1.1,0-1.7,0.1C481,149.4,481.3,148.8,481,153.6"/>
		<path class="st0" d="M331.3,157v-3.4l-3.2,0c-0.3,1.1-0.1,14.2-0.1,16.4h3.7c0-6.3-1.4-12.7,4.7-12.9v-4
			C332.7,153,332,156.4,331.3,157"/>
		<path class="st0" d="M373.8,153.3c-9.9,1.2-8.9,18.3,1.7,17C385.2,169.2,384.2,152.1,373.8,153.3 M375.7,167.2
			c-5.9,1.7-6.3-9.3-2.3-10.6c3.1-1,4.5,1.4,4.8,4C378.5,163.4,378,166.5,375.7,167.2"/>
		<path class="st0" d="M520.5,153.4c-4.4,0.6-7.2,4.3-6.7,9.4c0.4,4.6,3.5,8.3,8.7,7.5C532,168.9,530.8,152,520.5,153.4
			 M522.7,167.1c-4.7,1.6-5.7-4.7-4.6-8.1c0.4-1.3,1-2,2.1-2.4C526,154.3,526.5,165.8,522.7,167.1"/>
		<path class="st0" d="M406.7,153.4c-4.4,0.6-7.1,4.6-6.5,9.8c0.5,4.5,3.7,8,8.9,7.1C418.5,168.6,417.1,151.9,406.7,153.4
			 M404,163.1c-0.2-2.3,0-5.6,2.5-6.5c3.1-1.1,4.6,1.4,4.8,4.1C412.1,169.3,404.7,169.3,404,163.1"/>
		<path class="st0" d="M302.3,147.9v7.7c-0.8-1-1.2-1.7-2.4-2.2c-3.5-1.4-6.8,0.7-8,5c-2.4,8.4,4,14.8,8.9,11c0.9-0.7,1-1.5,1.8-2.4
			v3.1h3.5v-22.2L302.3,147.9L302.3,147.9z M301.9,165.1c-1.3,3-6.2,4-6.5-2.6c-0.1-2.9,0.4-5.6,2.8-6.3
			C303.4,154.9,302.4,163.9,301.9,165.1"/>
		<polygon class="st0" points="491.1,170.1 494.8,170.1 494.8,153.7 491.1,153.6 		"/>
		<path class="st0" d="M462,159.7c-1.8,9,6,12.7,11.2,9.9c1.3-0.7,3.2-2.4,3.4-4.3l-3.2-0.4c-0.6,0.9-0.8,1.7-1.7,2.2
			c-1.6,0.9-5.9,1.2-6-4.7h11.3C477.6,151.3,463.9,150.3,462,159.7 M473,159.9h-7.3c-0.1-2.1,1.5-4,3.6-4
			C471.5,155.9,473.3,157.7,473,159.9"/>
		<path class="st0" d="M318.3,153.4c-10.2-1.4-11.7,13.8-4.1,16.6c4.7,1.8,9.1-1,10-4.6c-0.7-0.4-2.3-0.5-3.2-0.5
			c-0.6,0.9-0.8,1.6-1.7,2.1c-1.7,1-4.3,0.5-5.4-1.4c-0.5-0.9-0.6-2.2-0.6-3.3h11.2C325,158.9,323,154,318.3,153.4 M320.6,159.9
			h-7.3c-0.1-2.1,1.5-4,3.6-4C319.1,155.9,320.9,157.8,320.6,159.9"/>
		<path class="st0" d="M467.6,151.9c2.7,0,2.4,0.1,5-3.5c1.1-1.4,0.7-0.4,1.2-2.2h-4C469.3,148.7,468.1,149.4,467.6,151.9"/>
		<path class="st1" d="M468,152h-0.1h-0.4l0-0.2c0.3-1.3,0.7-2.1,1.2-2.9c0.4-0.8,0.8-1.6,1.1-2.8V146h4.4l-0.1,0.5
			c-0.2,0.8-0.2,0.9-0.5,1.1c-0.1,0.1-0.3,0.3-0.7,0.8l-0.6,0.8C470.3,152,470.2,152,468,152 M467.8,151.7h0.2c2,0,2.1-0.1,3.9-2.6
			l0.6-0.8c0.4-0.5,0.6-0.7,0.7-0.8c0.1-0.1,0.3-0.4,0.4-1l0-0.1H470c-0.3,1.2-0.7,2-1.1,2.8C468.5,149.9,468.1,150.6,467.8,151.7"
			/>
	</g>
	<path id="Natupele" class="st0" d="M58.7,114.9V73.2c0-21.7-8.9-32.8-26-32.8c-7.7,0-14.5,3.4-18.3,8.5v-6.8H0v72.8h14.5V72.4
		c0-11.9,5.5-18.7,14.9-18.7s15.3,5.5,15.3,20v41.3L58.7,114.9L58.7,114.9z M353.2,79.6c0-27.7-12.3-39.2-28.1-39.2
		c-7.7,0-13.6,3.8-19.1,8.5v-6.8h-14v100l14-7.7v-26.4c4.2,4.7,11.1,8.5,18.3,8.5C339.6,116.6,353.2,104.7,353.2,79.6 M338.7,80
		c0,15.7-5.5,23.4-15.7,23.4c-7.2,0-14-5.1-17-9.4V63c3.8-4.7,9.8-9.4,16.6-9.4C333.2,53.6,338.7,61.7,338.7,80 M430.6,77
		c0-19.6-10.2-36.6-30.6-36.6c-19.1,0-32.3,13.2-32.3,38.3s14.5,37.9,31.9,37.9c11.1,0,18.7-3.4,25.1-9.4l-8.5-9.4
		c-4.7,3.4-9.8,5.9-15.7,5.9c-8.9,0-17-5.9-18.7-20.4h48.5C430.2,82.1,430.7,79.6,430.6,77 M416.2,71.9h-34.1
		c1.3-11.9,7.2-18.7,16.6-18.7C410.6,53.2,415.3,61.7,416.2,71.9 M449.4,114.9V20.8l14-7.2v101.3L449.4,114.9L449.4,114.9z
		 M544.7,77c0-19.6-9.8-36.6-30.6-36.6c-19.2,0-32.4,13.2-32.4,38.3s14.5,37.9,31.9,37.9c11.1,0,18.7-3.4,25.1-9.4l-8.5-9.4
		c-4.7,3.4-9.8,5.9-15.7,5.9c-8.9,0-17-5.9-18.3-20.4h48.1C544.7,82.1,544.7,79.6,544.7,77 M530.2,71.9h-34
		c1.3-11.9,7.2-18.7,17-18.7C524.7,53.2,529.8,61.7,530.2,71.9 M544.7,17.9c0-9.8,7.7-17.9,17.5-17.9c9.8,0,17.9,8.1,17.9,17.9
		s-8.1,17.9-17.9,17.9S544.7,27.6,544.7,17.9 M548.1,17.9c0,8.1,5.9,14.9,14,14.9S577,26,577,17.9s-6.8-14.5-14.9-14.5
		C554,3.4,548.1,9.8,548.1,17.9 M554,7.2v20h3v-8.5h5.9c1.3,0,2.1,0.4,2.6,0.4c0.9,0.4,1.3,1.3,1.3,2.6l0.4,3.4v2.1h3.4v-0.4
		c-0.4,0-0.4-0.4-0.9-1.3v-1.7l-0.4-2.6c0-1.3,0-2.1-0.4-2.6c-0.4-0.4-0.9-0.9-1.7-1.3c0.9-0.4,1.7-0.9,2.1-1.7
		c0.4-0.9,0.4-1.7,0.4-3c0-2.1-0.9-3.8-2.5-4.7c-1.3-0.4-2.6-0.9-3.9-0.9L554,7.2L554,7.2z M563,16.6c1.3,0,2.6-0.4,3-0.9
		c0.9-0.4,1.3-1.3,1.3-2.6c0-1.7-0.4-2.6-1.7-3c-0.4-0.4-1.3-0.4-2.1-0.4H557v6.8H563z M135.7,114.9V65.1
		c0-16.6-11.1-24.7-27.7-24.7c-10.2,0-17.9,2.1-25.1,6.4l5.5,11.1c5.9-3.4,11.5-4.7,19.1-4.7c8.9,0,14,4.7,14,12.3v5.5
		c-4.3-1.7-9.8-3-16.6-3c-16.6,0-28.9,7.7-28.9,23.8c0,17.9,13.6,24.7,25.1,24.7c8.1,0,15.3-3.8,20.4-8.5v6.8L135.7,114.9
		L135.7,114.9z M121.7,94.5c-3.4,4.7-10.2,9.4-17.9,9.4c-9.4,0-14-5.1-14-12.3c0-6.8,5.9-10.7,14.9-10.7c8.1,0,12.8,1.3,17,3
		C121.7,83.8,121.7,94.5,121.7,94.5z M192.8,100.4c-2.6,1.7-6.8,3-10.6,3c-5.1,0-7.2-1.7-7.2-8.5V55.3h17.9V42.1h-17.9V13.6
		l-14.5,7.2v21.3h-10.2v13.2h10.2v42.1c0,13.2,6.4,19.1,16.6,19.1c5.9,0,10.7-1.3,14-3.4L192.8,100.4L192.8,100.4z M270.6,114.9
		V42.1h-14.5v42.5c0,11.9-5.1,18.7-14.9,18.7s-15.3-5.1-15.3-20V42.1h-14v41.7c0,21.7,8.9,32.8,25.9,32.8c7.7,0,14.9-3,18.3-8.5v6.8
		L270.6,114.9L270.6,114.9z"/>
</g>
</svg>
