<?xml version="1.0" encoding="utf-8"?>
<!-- Generator: Adobe Illustrator 28.1.0, SVG Export Plug-In . SVG Version: 6.00 Build 0)  -->
<svg version="1.1" id="Layer_1" xmlns="http://www.w3.org/2000/svg" xmlns:xlink="http://www.w3.org/1999/xlink" x="0px" y="0px"
	 viewBox="0 0 500 651.3" style="enable-background:new 0 0 500 651.3;" xml:space="preserve">
<style type="text/css">
	.st0{fill-rule:evenodd;clip-rule:evenodd;fill:#ffffff;}
</style>
<g>
	<path class="st0" d="M401.3,81.4h-29.2C372.1,36.4,317.4,0,250,0c-67.4,0-122.1,36.4-122.1,81.4H98.7c-45,0-81.4,36.5-81.4,81.4
		L0,569.9c0,45,36.4,81.4,81.4,81.4h337.2c45,0,81.4-36.4,81.4-81.4l-17.3-407.1C482.7,117.9,446.2,81.4,401.3,81.4z M250,40.7
		c45,0,81.4,12.6,81.4,40.7H168.6C168.6,53.3,205,40.7,250,40.7z M418.6,610.6l-337.2,0c-22.5,0-40.7-18.2-40.7-40.7L58,162.8
		c0-22.5,18.2-40.7,40.7-40.7l29.2,0v67.2c-25.8,2.1-24.2,40.6,1.7,40.6h37.4c25.9,0,27.4-38.5,1.7-40.6v-67.2h162.8v67.2
		c-25.8,2.1-24.2,40.6,1.7,40.6h37.4c25.9,0,27.4-38.5,1.7-40.6v-67.2h29.2c22.5,0,40.7,18.2,40.7,40.7l17.3,407
		C459.3,592.3,441.1,610.6,418.6,610.6z"/>
</g>
</svg>
